<svg xmlns="http://www.w3.org/2000/svg" viewBox="0 0 600 800" preserveAspectRatio="xMidYMid slice"><defs><linearGradient id="s" x1="0" y1="0" x2="0" y2="1"><stop offset="0" stop-color="#5a4a3c"/><stop offset="1" stop-color="#1a1613"/></linearGradient></defs><rect width="600" height="800" fill="url(#s)"/><circle cx="462" cy="139" r="46" fill="#f0dcc0" opacity=".16"/><path d="M0 560 Q150 520 300 548 T600 540 V800 H0Z" fill="#14110f"/><rect x="90" y="510" width="420" height="150" fill="#2a2420"/><rect x="70" y="490" width="460" height="22" fill="#3b332d"/><rect x="150" y="430" width="280" height="62" fill="#332c27"/><rect x="140" y="414" width="300" height="16" fill="#463d36"/><rect x="114" y="538" width="104" height="92" fill="#F0D7A6" opacity="0.9"/><rect x="244" y="538" width="104" height="92" fill="#F0D7A6" opacity="0.85"/><rect x="374" y="538" width="104" height="92" fill="#F0D7A6" opacity="0.85"/><rect x="440" y="446" width="60" height="32" fill="#F0D7A6" opacity=".7"/><circle cx="60" cy="564" r="37" fill="#0e0c0a"/><circle cx="540" cy="553" r="52" fill="#0e0c0a"/><circle cx="30" cy="533" r="50" fill="#0e0c0a"/><circle cx="575" cy="543" r="35" fill="#0e0c0a"/><rect x="0" y="650" width="600" height="150" fill="#0f0d0b"/><rect width="600" height="800" filter="none" fill="none"/></svg>